<?xml version="1.0" standalone="no"?>
<!DOCTYPE svg PUBLIC "-//W3C//DTD SVG 20010904//EN"
 "http://www.w3.org/TR/2001/REC-SVG-20010904/DTD/svg10.dtd">
<svg version="1.0" xmlns="http://www.w3.org/2000/svg"
 width="308.7612359841165" height="100px" viewBox="0 0 2000.000000 1500.000000"
 preserveAspectRatio="xMidYMid meet">

<g transform="translate(0.000000,1500.000000) scale(0.100000,-0.100000)"
fill="#000000" stroke="none">
<path d="M9855 12003 c-304 -24 -423 -39 -630 -79 -672 -131 -1372 -450 -1925
-878 -235 -182 -496 -428 -669 -631 -111 -130 -106 -125 -98 -102 12 34 -4 16
-86 -95 -306 -413 -521 -828 -670 -1293 -55 -173 -105 -372 -117 -474 -5 -42
-25 -157 -44 -256 -19 -99 -40 -225 -46 -280 -6 -55 -13 -111 -16 -125 -4 -22
-3 -21 9 5 22 48 28 7 16 -108 -22 -209 -24 -245 -17 -362 3 -66 14 -142 22
-170 10 -31 16 -88 16 -150 0 -117 10 -211 20 -195 9 15 34 -115 26 -136 -15
-40 185 -735 209 -726 5 2 16 -21 25 -50 9 -29 35 -89 57 -133 22 -44 46 -98
53 -120 7 -22 45 -99 85 -170 40 -72 80 -146 88 -165 8 -19 31 -57 51 -85 20
-27 65 -98 100 -157 147 -247 483 -648 756 -903 488 -455 1120 -813 1768
-1001 177 -51 487 -115 668 -138 569 -72 1168 -32 1724 116 261 69 662 221
755 286 22 16 63 37 90 47 89 32 246 117 369 200 275 184 412 279 432 299 11
12 74 69 140 129 65 59 130 124 144 144 14 20 75 88 135 152 115 120 194 219
285 356 29 44 74 103 99 131 52 58 171 230 221 318 30 52 31 57 12 47 -36 -19
-28 14 38 151 192 401 326 867 386 1343 20 154 24 572 7 655 -7 36 -11 -1 -15
-175 -20 -690 -195 -1340 -500 -1857 -35 -59 -91 -156 -126 -215 -150 -259
-343 -485 -742 -869 -196 -189 -421 -351 -725 -522 -599 -336 -1072 -503
-1564 -552 -146 -14 -208 -11 -83 5 554 72 1111 257 1593 530 133 76 384 246
504 342 117 93 360 325 428 408 25 30 -5 6 -73 -60 -313 -301 -513 -453 -813
-616 -72 -40 -147 -85 -165 -101 -58 -50 -238 -133 -431 -199 -133 -45 -119
-34 49 39 173 77 264 121 258 127 -2 3 -55 -18 -118 -46 -343 -153 -743 -275
-1094 -334 -234 -39 -385 -48 -655 -42 -338 8 -389 25 -81 26 389 2 720 31
860 76 41 13 143 40 225 61 454 112 914 310 1300 561 115 75 300 213 365 273
29 27 18 20 -31 -18 -278 -215 -550 -385 -744 -466 -61 -26 -34 -8 130 89 267
157 490 311 604 418 58 55 70 77 14 25 -110 -98 -339 -254 -548 -373 -235
-134 -608 -304 -639 -292 -18 7 -105 -20 -128 -40 -35 -31 -502 -140 -783
-183 -198 -31 -577 -39 -690 -16 -44 9 -156 21 -250 26 -346 18 -644 102
-1190 337 -321 138 -389 177 -655 382 -417 322 -704 588 -901 836 -466 586
-765 1339 -844 2126 -17 176 -20 568 -5 739 74 813 399 1606 914 2227 28 34
73 92 100 128 35 47 51 62 57 53 6 -10 18 -3 46 25 32 31 35 39 23 47 -12 8
11 35 115 137 287 282 631 521 1020 709 489 236 980 366 1518 400 84 5 117 12
154 31 44 22 54 23 168 18 66 -3 133 -8 148 -10 15 -3 25 -1 22 4 -7 12 106 2
121 -11 7 -5 52 -13 100 -19 49 -5 141 -18 205 -29 133 -23 164 -24 99 -4 -25
7 -31 11 -15 9 97 -16 135 -17 135 -5 0 9 10 10 38 5 31 -6 225 -67 286 -91
13 -5 17 -4 12 4 -7 12 272 -80 357 -118 26 -11 47 -25 47 -31 0 -6 5 -7 10
-4 6 3 10 1 10 -4 0 -6 -4 -11 -9 -11 -17 0 -88 36 -105 53 -18 18 -52 24 -41
8 8 -14 -146 49 -168 68 -10 8 -34 14 -54 14 -25 -1 -32 2 -22 8 8 5 10 9 4 9
-5 0 -16 -4 -24 -9 -9 -6 1 -13 35 -25 46 -16 120 -54 81 -42 -84 26 -44 6
103 -52 96 -38 201 -81 234 -96 64 -28 86 -34 46 -11 -33 19 -13 19 40 0 54
-19 69 -19 44 0 -10 9 2 6 28 -7 26 -12 44 -26 41 -31 -3 -6 -1 -7 5 -3 16 10
114 -42 106 -56 -4 -7 -3 -8 5 -4 15 10 91 -34 296 -170 439 -290 841 -686
1110 -1091 26 -40 50 -73 52 -73 6 0 -1 11 -83 135 -100 150 -216 294 -375
466 -184 198 -197 219 -38 59 152 -153 256 -275 402 -470 55 -74 107 -140 114
-147 39 -32 230 -412 321 -638 60 -150 148 -407 192 -562 13 -45 28 -81 34
-80 12 2 38 -104 70 -288 33 -189 45 -293 55 -468 4 -81 11 -150 14 -154 10
-10 8 168 -3 313 -27 336 -97 665 -219 1025 -84 250 -195 507 -241 554 -16 17
-38 57 -49 90 -61 175 -372 600 -651 889 -217 224 -413 390 -710 598 -163 114
-266 173 -481 277 -419 202 -849 326 -1344 387 -174 21 -676 30 -860 15 -335
-28 -600 -75 -680 -121 -31 -18 -54 -34 -52 -36 2 -2 51 7 108 20 57 14 124
29 149 34 43 9 43 10 11 11 -19 1 -31 4 -27 8 8 8 9 8 106 17 70 6 74 5 55 -9
-20 -16 -19 -16 5 -11 51 11 144 26 159 26 42 -1 -55 -28 -139 -39 -362 -46
-749 -164 -1115 -340 -385 -185 -662 -372 -1086 -731 -279 -235 -378 -351
-668 -782 -111 -166 -159 -225 -106 -132 242 426 559 786 1070 1213 66 55 131
105 145 112 63 30 92 47 187 115 56 41 128 85 160 98 32 14 114 53 183 89 69
35 153 75 188 90 63 27 86 55 35 42 -35 -8 -408 -190 -492 -239 -35 -20 -65
-35 -67 -33 -2 2 49 35 114 74 497 302 1041 488 1652 565 142 18 773 18 930 0
470 -54 917 -172 1320 -349 501 -221 829 -438 1190 -789 85 -83 181 -167 212
-187 56 -36 99 -84 61 -70 -14 6 -13 1 5 -25 13 -17 28 -29 35 -26 7 2 26 -9
42 -26 16 -16 25 -30 21 -30 -5 0 19 -30 53 -66 187 -200 363 -472 548 -849
82 -166 104 -194 36 -46 -18 41 -32 76 -30 78 5 5 91 -180 137 -296 48 -123
110 -313 150 -466 35 -131 44 -152 38 -88 -2 23 0 39 5 36 10 -6 -1 39 -25
102 -11 28 -22 64 -24 80 -8 49 -34 125 -69 205 -18 41 -45 116 -60 165 -36
122 -111 284 -235 511 -198 363 -335 562 -567 824 -363 411 -797 741 -1307
997 -82 41 -166 88 -186 104 -68 55 -405 175 -681 243 -375 93 -753 138 -1134
134 -104 -1 -208 -3 -230 -5z m170 -243 c-137 -4 -252 -8 -255 -10 -3 -1 9 -6
25 -10 22 -5 11 -7 -41 -8 -40 -1 -84 -4 -99 -8 -20 -5 -26 -4 -21 5 4 6 17
11 30 11 12 0 26 4 32 9 14 15 70 18 334 17 l245 0 -250 -6z m1281 -26 c75
-21 127 -44 101 -44 -12 0 -197 62 -197 66 0 6 2 6 96 -22z m-1318 9 c-26 -2
-71 -2 -100 0 -29 2 -8 3 47 3 55 0 79 -1 53 -3z m96 -83 c-15 -15 -161 -17
-176 -2 -9 9 9 12 87 12 65 0 96 -3 89 -10z m366 -15 c245 -27 266 -28 235
-15 -18 8 -18 9 5 9 35 0 159 -24 168 -34 8 -8 -78 -3 -343 22 -93 8 -198 13
-232 9 -48 -4 -66 -2 -78 10 -30 30 -41 30 245 -1z m814 -56 c3 -2 1 -11 -3
-18 -11 -17 -71 -5 -71 14 0 10 11 13 35 11 19 -1 37 -4 39 -7z m596 -312 c77
-29 36 -35 -46 -6 -41 15 -60 26 -52 31 7 4 20 5 28 2 8 -3 40 -15 70 -27z
m566 -227 c37 -26 75 -70 60 -70 -11 0 -116 83 -116 91 0 14 9 11 56 -21z
m334 -262 c35 -32 59 -58 54 -58 -5 0 -39 27 -74 61 -36 33 -60 59 -54 57 6
-2 39 -29 74 -60z"/>
<path d="M8715 11596 c-189 -68 -287 -110 -215 -93 24 6 24 6 5 -10 -11 -8
-15 -14 -10 -12 177 62 283 105 282 112 -1 5 12 14 30 21 32 11 54 26 37 25
-5 0 -63 -19 -129 -43z"/>
<path d="M10948 11533 c6 -2 18 -2 25 0 6 3 1 5 -13 5 -14 0 -19 -2 -12 -5z"/>
<path d="M6749 10587 c-25 -29 -74 -86 -108 -127 -57 -68 -54 -66 32 25 79 82
139 157 125 154 -2 0 -24 -23 -49 -52z"/>
<path d="M6549 10353 c-13 -16 -12 -17 4 -4 9 7 17 15 17 17 0 8 -8 3 -21 -13z"/>
<path d="M8083 9500 l-503 -499 0 -563 0 -563 503 -503 502 -502 1083 0 1082
0 0 -935 0 -935 333 0 332 0 498 498 497 497 -1 615 0 615 -479 495 -478 495
-1154 5 -1153 5 -3 888 -2 887 -278 0 -277 -1 -502 -499z"/>
<path d="M9410 9550 l0 -450 670 0 670 0 0 -250 0 -250 760 0 760 0 0 267 0
268 -432 432 -433 433 -997 0 -998 0 0 -450z"/>
<path d="M13700 9573 c29 -57 62 -111 73 -120 19 -18 20 -17 7 7 -7 13 -27 47
-45 75 -18 27 -30 56 -28 63 7 20 -6 64 -18 57 -5 -4 -17 -1 -26 7 -9 7 7 -33
37 -89z"/>
<path d="M14120 9245 c0 -5 5 -17 10 -25 5 -8 10 -10 10 -5 0 6 -5 17 -10 25
-5 8 -10 11 -10 5z"/>
<path d="M14396 8535 c7 -68 27 -164 31 -145 1 8 -6 56 -17 105 -12 57 -17 72
-14 40z"/>
<path d="M5621 6754 c0 -11 3 -14 6 -6 3 7 2 16 -1 19 -3 4 -6 -2 -5 -13z"/>
<path d="M7581 6248 l0 -253 418 -495 417 -495 1032 -3 1032 -2 0 450 0 450
-620 0 -620 0 0 300 0 300 -830 0 -830 0 1 -252z"/>
</g>
</svg>
